
        <svg xmlns="http://www.w3.org/2000/svg" xmlns:xlink="http://www.w3.org/1999/xlink" version="1.1" width="3162.2913363267644" height="922.6729926448442" viewBox="0 -73.03110134704389 3162.2913363267644 922.6729926448442">
			
			<g transform="scale(8.11456681633821) translate(10, 10)">
				<defs id="SvgjsDefs9217"><linearGradient id="SvgjsLinearGradient9224"><stop id="SvgjsStop9225" stop-color="#8f5e25" offset="0"/><stop id="SvgjsStop9226" stop-color="#fbf4a1" offset="0.5"/><stop id="SvgjsStop9227" stop-color="#8f5e25" offset="1"/></linearGradient><linearGradient id="SvgjsLinearGradient9228"><stop id="SvgjsStop9229" stop-color="#8f5e25" offset="0"/><stop id="SvgjsStop9230" stop-color="#fbf4a1" offset="0.5"/><stop id="SvgjsStop9231" stop-color="#8f5e25" offset="1"/></linearGradient><linearGradient id="SvgjsLinearGradient9232"><stop id="SvgjsStop9233" stop-color="#8f5e25" offset="0"/><stop id="SvgjsStop9234" stop-color="#fbf4a1" offset="0.5"/><stop id="SvgjsStop9235" stop-color="#8f5e25" offset="1"/></linearGradient></defs><g id="SvgjsG9218" featureKey="symbolFeature-0" transform="matrix(1.0084019131570476,0,0,1.0084019131570476,-7.301883629409835,-17.067215305256383)" fill="#000"><defs xmlns="http://www.w3.org/2000/svg"/><title xmlns="http://www.w3.org/2000/svg">Artboard 3</title><g xmlns="http://www.w3.org/2000/svg"><path d="M49,35a1,1,0,0,0,1-1V31a1,1,0,0,0-2,0v3A1,1,0,0,0,49,35Z"/><path d="M54.69,37a1,1,0,0,0,.71-.29l2.22-2.22a1,1,0,0,0-1.41-1.41L54,35.29A1,1,0,0,0,54.69,37Z"/><path d="M42.2,36.71a1,1,0,0,0,1.41-1.41l-2.22-2.22A1,1,0,0,0,40,34.49Z"/><path d="M63.21,46.32a5.54,5.54,0,0,0-5-1.58A4.85,4.85,0,0,0,55,42a6.36,6.36,0,0,0-12.57-.8,5.27,5.27,0,0,0-2,2.17,5.83,5.83,0,0,0-1.17-.12,5.66,5.66,0,0,0-5.66,5.66A5.5,5.5,0,0,0,35,52.58,4.34,4.34,0,0,0,38.34,54h0l21.4,0a4.66,4.66,0,0,0,3-1.07,4.51,4.51,0,0,0,1.57-3.18A4.71,4.71,0,0,0,63.21,46.32ZM48.68,38.14A4.37,4.37,0,0,1,53,41.81a4.57,4.57,0,0,0-2.57,1.12,5.66,5.66,0,0,0-4.69-2.59,7,7,0,0,0-.85.05A4.35,4.35,0,0,1,48.68,38.14ZM61.41,51.31a2.46,2.46,0,0,1-1.63.59h0L38.35,52h0a2.27,2.27,0,0,1-1.72-.75,3.53,3.53,0,0,1,2.66-5.85,3.62,3.62,0,0,1,1.4.28A1.07,1.07,0,0,0,42.12,45a3.44,3.44,0,0,1,3.54-2.5c1.49,0,3.33,1,3.33,2.56v.1a1.11,1.11,0,0,0,.93,1,1.09,1.09,0,0,0,1.21-.68,2.45,2.45,0,0,1,2.3-1.6c1.35,0,2.86.92,2.86,2.23a1.07,1.07,0,0,0,1.55.95,3.49,3.49,0,0,1,3.75.65,2.63,2.63,0,0,1,.65,1.88A2.43,2.43,0,0,1,61.41,51.31Z"/><path d="M56.08,41a1,1,0,0,0,1,1h2.58a1,1,0,0,0,0-2H57.08A1,1,0,0,0,56.08,41Z"/><path d="M37.08,42h2.58a1,1,0,0,0,0-2H37.08a1,1,0,0,0,0,2Z"/><polyline class="cls-1" points="37 91 10 91 10 57" style="fill: none; stroke: url(#SvgjsLinearGradient9224); stroke-linecap: round; stroke-linejoin: round; stroke-width: 2px;"/><path d="M91.4,56.38,68.48,40.59a1,1,0,0,0-.48-.16V35.63l9.33,6.69a1,1,0,1,0,1.17-1.63L51,21V18H62a1,1,0,0,0,.8-1.6L60.25,13,62.8,9.6A1,1,0,0,0,62,8H50a1,1,0,0,0-1,1V21L20.93,40.68a1,1,0,1,0,1.15,1.64L31,36.05v4L7.76,56.38A1,1,0,1,0,8.91,58L31,42.52V91a1,1,0,0,0,1,1H89a1,1,0,0,0,1-1V57.84l.27.18a1,1,0,0,0,1.13-1.65ZM58.2,13.6,60,16H51V10h9l-1.8,2.4A1,1,0,0,0,58.2,13.6ZM62,90H33V35a1,1,0,0,0-.06-.31L50,22.73,66,34.19V90ZM88,57V90H68V42.69L88.12,56.55A1,1,0,0,0,88,57Z"/><path d="M53.33,65H44.67A5.7,5.7,0,0,0,39,70.83V91a1,1,0,0,0,2,0V70.83A3.7,3.7,0,0,1,44.67,67H48V90a1,1,0,1,0,2,0V67h3.33A3.7,3.7,0,0,1,57,70.83V91a1,1,0,0,0,2,0V70.83A5.7,5.7,0,0,0,53.33,65Z"/><circle cx="45.41" cy="81.88" r="0.75" transform="translate(-41.2 46.31) rotate(-38.66)"/><path d="M45.41,83.12a1.25,1.25,0,1,1,1-2h0a1.25,1.25,0,0,1-1,2Zm0-1.5a.25.25,0,1,0,.2.09h0A.25.25,0,0,0,45.41,81.63Z"/><circle cx="52.41" cy="81.88" r="0.75" transform="translate(-39.66 50.68) rotate(-38.66)"/><path d="M52.41,83.12a1.25,1.25,0,1,1,1-2h0a1.25,1.25,0,0,1-1,2Zm0-1.5a.25.25,0,1,0,.2.09h0A.25.25,0,0,0,52.41,81.63Z"/><path d="M81.72,58H74.28a3.24,3.24,0,0,0-1,.17H73.2A3.28,3.28,0,0,0,71,61.28V78a1,1,0,0,0,1,1H84a1,1,0,0,0,1-1V61.28A3.29,3.29,0,0,0,81.72,58Zm-5.29,9.28A18.36,18.36,0,0,1,73,62.75l0,0V61.28a1.25,1.25,0,0,1,.17-.6A20.52,20.52,0,0,0,83,70.32V71.4A17.74,17.74,0,0,1,76.43,67.28ZM76.75,60A20.79,20.79,0,0,0,83,66.16v2A18.6,18.6,0,0,1,78.7,65a18.22,18.22,0,0,1-3.62-5ZM83,61.28v2.45A18.64,18.64,0,0,1,79.2,60h2.51A1.28,1.28,0,0,1,83,61.28ZM73,66.41a21.17,21.17,0,0,0,2,2.3,20.65,20.65,0,0,0,4.55,3.36L78,77H73ZM80.08,77l1.32-4.06a16.57,16.57,0,0,0,1.6.55V77Z"/><path d="M25.81,58.2l0,0h-.05a3.23,3.23,0,0,0-1-.17H17.28A3.29,3.29,0,0,0,14,61.28V78a1,1,0,0,0,1,1H27a1,1,0,0,0,1-1V61.28A3.28,3.28,0,0,0,25.81,58.2ZM16,71.41V70.32a20.27,20.27,0,0,0,5.7-3.93,20.22,20.22,0,0,0,4.13-5.71,1.25,1.25,0,0,1,.17.6v1.47a18.36,18.36,0,0,1-3.42,4.53A17.74,17.74,0,0,1,16,71.41ZM23.92,60a18.22,18.22,0,0,1-3.62,5A18.6,18.6,0,0,1,16,68.11v-2A20.79,20.79,0,0,0,22.25,60Zm-6.64,0H19.8A18.64,18.64,0,0,1,16,63.73V61.28A1.28,1.28,0,0,1,17.28,60ZM16,73.5a16.58,16.58,0,0,0,1.6-.55L18.92,77H16ZM21,77l-1.6-4.93A20.65,20.65,0,0,0,24,68.71a21.18,21.18,0,0,0,2-2.3V77Z"/></g></g><g id="SvgjsG9219" featureKey="nameFeature-0" transform="matrix(1.6772973596985965,0,0,1.6772973596985965,102.30141495549681,-17.33999151887759)" fill="#000"><path d="M13.2 38.64 c0.32 0.04 0.08 1.36 -0.24 1.36 l-10.96 0 c-0.32 0 -0.56 -1.32 -0.24 -1.36 c2.04 -0.28 3.32 -1.08 3.32 -3.6 l0 -18.08 c0 -2.52 -1.28 -3.32 -3.32 -3.6 c-0.32 -0.04 -0.08 -1.36 0.24 -1.36 l10.96 0 c0.32 0 0.56 1.32 0.24 1.36 c-1.72 0.24 -3.32 0.8 -3.32 3.6 l0 18.08 c0 2.8 1.6 3.36 3.32 3.6 z M30.2 39 c0.32 0 0.24 1.08 0 1.16 c-2.52 0.84 -6.08 0.56 -8.52 -2.08 l-11.32 -12.24 l9.04 -9.28 c1.92 -1.96 1.8 -2.84 -0.32 -3.2 c-0.48 -0.08 -0.28 -1.36 0.04 -1.36 l9.2 0 c0.32 0 0.56 1.32 0.16 1.36 c-1.76 0.24 -3.84 1.04 -6.36 3.64 l-7.08 7.28 l10.32 11.08 c2.6 2.76 4 3.64 4.84 3.64 z M63.08 38.64 c0.56 0.08 0.4 1.36 -0.08 1.36 l-10.56 0 c-0.52 0 -0.56 -1.28 -0.12 -1.36 c1.48 -0.28 3.08 -0.8 1.6 -4.24 l-0.44 -1 c-0.4 -0.96 -1.08 -1.04 -2.28 -1.04 l-8.16 0 c-1.2 0 -1.88 0.08 -2.28 1.04 l-0.4 1 c-1.4 3.44 0.12 3.96 2.04 4.24 c0.52 0.08 0.4 1.36 -0.12 1.36 l-8.64 0 c-0.48 0 -0.6 -1.28 -0.12 -1.36 c1.64 -0.28 2.6 -0.84 4.08 -4.24 l6.76 -15.52 c1.56 -3.52 2.04 -5.16 2.04 -6.68 c0 -0.24 2.8 -0.88 2.92 -0.6 l9.76 22.76 c1.44 3.4 2.4 4.04 4 4.28 z M50.92 30.119999999999997 c0.56 0 1.16 -0.08 0.92 -0.64 l-4.68 -11.2 l-4.72 11.2 c-0.24 0.56 0.36 0.64 0.92 0.64 l7.56 0 z M92.56 40.4 c-0.68 0 -1.04 -0.28 -1.48 -0.76 l-19.04 -19.92 l0 15.2 c0 2.72 1.6 3.16 3.88 3.72 c0.32 0.08 0.16 1.36 -0.24 1.36 l-9.48 0 c-0.32 0 -0.56 -1.24 -0.2 -1.36 c1.68 -0.56 3.28 -0.88 3.28 -3.72 l0 -15.52 c0 -2.84 -0.44 -4.2 -1.48 -5.6 c-0.36 -0.48 -0.72 -0.8 -0.72 -0.92 c0 -0.36 0.24 -0.88 0.8 -0.88 l2.96 0 c0.4 0 0.68 0.04 0.96 0.36 l18.64 19.72 l0 -15.04 c0 -2.84 -1.8 -3.16 -3.88 -3.68 c-0.32 -0.08 -0.16 -1.36 0.24 -1.36 l9.48 0 c0.32 0 0.52 1.28 0.2 1.36 c-1.76 0.52 -3.28 0.84 -3.28 3.68 l0 15.56 c0 2.64 0.08 5.56 0.48 7.04 c0.16 0.6 -0.48 0.76 -1.12 0.76 z M99.64 40.08 c-0.4 0.04 -0.56 -1.36 -0.24 -1.44 c2.32 -0.6 4.12 -0.96 4.12 -3.92 l0 -17.76 c0 -2.56 -1.64 -3.24 -3.36 -3.68 c-0.32 -0.08 -0.12 -1.4 0.2 -1.36 c1.64 0.2 3.32 0.24 5 0.24 c3.12 0 5.92 -0.24 7.96 -0.24 c9.68 0 14.92 5.76 14.92 13.48 c0 7.68 -5.24 14.68 -14.96 14.68 c-1.92 0 -4.4 -0.24 -7.36 -0.24 c-2.48 0 -4.44 0.04 -6.28 0.24 z M113.67999999999999 37.96 c6.52 0 9.76 -3.52 9.76 -10.28 c0 -7.64 -4.16 -13.64 -11.36 -13.64 c-2.84 0 -3.76 0.88 -3.76 2.92 l0 17.76 c0 2.16 1.48 3.24 5.36 3.24 z M159 12 c0.48 0 0.6 1.28 0.12 1.36 c-1.56 0.24 -2.92 1.36 -4.76 4.24 l-6.4 10 l0 7.44 c0 2.8 1.6 3.28 4.08 3.6 c0.28 0.04 0.08 1.36 -0.24 1.36 l-12.52 0 c-0.32 0 -0.52 -1.32 -0.24 -1.36 c2.64 -0.36 4.12 -0.88 4.12 -3.6 l0 -7.28 l-6.72 -10.12 c-1.84 -2.76 -2.96 -4 -4.68 -4.28 c-0.52 -0.08 -0.4 -1.36 0.12 -1.36 l10.56 0 c0.52 0 0.6 1.28 0.12 1.36 c-1.76 0.28 -2.44 1.64 -0.72 4.24 l5.08 7.56 l4.88 -7.56 c1.68 -2.6 0.68 -3.92 -1.44 -4.24 c-0.56 -0.08 -0.4 -1.36 0.08 -1.36 l8.56 0 z"/></g><g id="SvgjsG9220" featureKey="sloganFeature-0" transform="matrix(0.8960976213733606,0,0,0.8960976213733606,103.36363582049006,59.89829205645408)" fill="#000"><path d="M7.6953 5.888999999999999 c2.7637 0 4.4824 2.0508 4.4824 4.5605 c0 2.5684 -1.7188 4.4922 -4.4824 4.4922 l-2.9395 0 l0 5.0586 l-2.9297 0 l0 -14.111 l5.8691 0 z M7.207 12.4902 c1.4648 0 2.1484 -0.81055 2.1484 -2.0801 c0 -1.2207 -0.68359 -2.0703 -2.1484 -2.0703 l-2.4512 0 l0 4.1504 l2.4512 0 z M33.896440625 20 l-3.6719 -6.2109 l-0.84961 0 l0 6.2109 l-2.9297 0 l0 -14.111 l5.1172 0 c3.1934 0 4.541 1.8848 4.541 4.2188 c0 1.8945 -1.0742 3.125 -2.9883 3.5352 l4.248 6.3574 l-3.4668 0 z M29.375040625 8.32 l0 3.3691 l1.7285 0 c1.5625 0 2.1973 -0.66406 2.1973 -1.6797 c0 -1.0059 -0.63477 -1.6895 -2.1973 -1.6895 l-1.7285 0 z M59.5021875 8.467 l-5.2344 0 l0 3.2031 l4.6387 0 l0 2.5488 l-4.6387 0 l0 3.1934 l5.2344 0 l0 2.5879 l-8.1836 0 l0 -14.111 l8.1836 0 l0 2.5781 z M73.9258 15.976600000000001 l0 -2.3535 l7.002 0 l0 2.3535 l-7.002 0 z M100.67385625 20.19531 c-3.0273 0 -5.3906 -1.4551 -5.8203 -4.1016 l3.0273 -0.69336 c0.19531 1.582 1.3574 2.4023 2.9102 2.4023 c1.1914 0 2.1387 -0.52734 2.1289 -1.7188 c-0.0097656 -1.3281 -1.5723 -1.748 -3.291 -2.2754 c-2.0703 -0.64453 -4.2871 -1.4063 -4.2871 -4.0039 c0 -2.627 2.1484 -4.1113 4.9805 -4.1113 c2.4805 0 4.9805 1.0059 5.5469 3.7109 l-2.832 0.70313 c-0.26367 -1.4063 -1.2109 -2.0215 -2.5391 -2.0215 c-1.1816 0 -2.1875 0.48828 -2.1875 1.6504 c0 1.084 1.3867 1.4453 2.9883 1.9238 c2.1289 0.64453 4.6484 1.4648 4.6484 4.2773 c0 2.998 -2.5098 4.2578 -5.2734 4.2578 z M126.7090125 20.19531 c-4.1504 0 -7.2168 -2.8223 -7.2168 -7.2559 s3.0664 -7.2461 7.2168 -7.2461 c3.1445 0 5.6641 1.6113 6.6699 4.2871 l-2.7344 0.99609 c-0.625 -1.6406 -2.1191 -2.5879 -3.9355 -2.5879 c-2.4316 0 -4.2969 1.6992 -4.2969 4.5508 s1.8652 4.5605 4.2969 4.5605 c1.8164 0 3.3105 -0.95703 3.9355 -2.5977 l2.7344 0.99609 c-1.0059 2.6758 -3.5254 4.2969 -6.6699 4.2969 z M156.48471875 5.888999999999999 l2.9297 0 l0 14.111 l-2.9297 0 l0 -5.8008 l-5.9668 0 l0 5.8008 l-2.9297 0 l0 -14.111 l2.9297 0 l0 5.7617 l5.9668 0 l0 -5.7617 z M181.123075 20.19531 c-4.1504 0 -7.2168 -2.832 -7.2168 -7.2559 c0 -4.4336 3.0664 -7.2461 7.2168 -7.2461 c4.1406 0 7.207 2.8125 7.207 7.2461 c0 4.4238 -3.0664 7.2559 -7.207 7.2559 z M181.123075 17.5098 c2.4316 0 4.2969 -1.709 4.2969 -4.5703 c0 -2.8516 -1.8652 -4.5508 -4.2969 -4.5508 s-4.2969 1.6992 -4.2969 4.5508 c0 2.8613 1.8652 4.5703 4.2969 4.5703 z M209.082059375 20.19531 c-4.1504 0 -7.2168 -2.832 -7.2168 -7.2559 c0 -4.4336 3.0664 -7.2461 7.2168 -7.2461 c4.1406 0 7.207 2.8125 7.207 7.2461 c0 4.4238 -3.0664 7.2559 -7.207 7.2559 z M209.082059375 17.5098 c2.4316 0 4.2969 -1.709 4.2969 -4.5703 c0 -2.8516 -1.8652 -4.5508 -4.2969 -4.5508 s-4.2969 1.6992 -4.2969 4.5508 c0 2.8613 1.8652 4.5703 4.2969 4.5703 z M233.72074375 17.4121 l4.4238 0 l0 2.5879 l-7.3535 0 l0 -14.111 l2.9297 0 l0 11.523 z"/></g>
			</g>
		</svg>
	